<mxfile host="app.diagrams.net" modified="2023-10-24T22:33:42.944Z" agent="Mozilla/5.0 (Macintosh; Intel Mac OS X 10_15_7) AppleWebKit/537.36 (KHTML, like Gecko) Chrome/118.0.0.0 Safari/537.36" version="22.0.7" etag="77YkxUGTAJd0c9sGjT7Z" type="github">
  <diagram name="PÃ¡gina-1" id="hFQROffpKhni48I7Sgqv">
    <mxGraphModel>
      <root>
        <mxCell id="0" />
        <mxCell id="1" parent="0" />
      </root>
    </mxGraphModel>
  </diagram>
</mxfile>
